<svg width="44" height="44" viewBox="0 0 44 44" fill="none" xmlns="http://www.w3.org/2000/svg">
<path d="M21.9999 16.5V23.8333M21.9999 31.1667H22.0182M18.8649 7.07668L3.33658 33C3.01642 33.5544 2.84702 34.1831 2.84523 34.8233C2.84344 35.4635 3.00932 36.0931 3.32636 36.6493C3.64341 37.2055 4.10058 37.669 4.65238 37.9937C5.20418 38.3184 5.83138 38.493 6.47158 38.5H37.5282C38.1684 38.493 38.7956 38.3184 39.3474 37.9937C39.8993 37.669 40.3564 37.2055 40.6735 36.6493C40.9905 36.0931 41.1564 35.4635 41.1546 34.8233C41.1528 34.1831 40.9834 33.5544 40.6632 33L25.1349 7.07668C24.8081 6.53787 24.3479 6.09239 23.7988 5.78323C23.2496 5.47406 22.6301 5.31165 21.9999 5.31165C21.3697 5.31165 20.7502 5.47406 20.2011 5.78323C19.6519 6.09239 19.1917 6.53787 18.8649 7.07668Z" stroke="#975102" stroke-width="4" stroke-linecap="round" stroke-linejoin="round"/>
</svg>
